<mxfile host="Electron" agent="Mozilla/5.0 (Windows NT 10.0; Win64; x64) AppleWebKit/537.36 (KHTML, like Gecko) draw.io/24.7.17 Chrome/128.0.6613.36 Electron/32.0.1 Safari/537.36" version="24.7.17">
  <diagram name="Page-1" id="1415542452496">
    <mxGraphModel dx="794" dy="557" grid="1" gridSize="10" guides="1" tooltips="1" connect="1" arrows="1" fold="1" page="1" pageScale="1" pageWidth="850" pageHeight="1100" math="0" shadow="0">
      <root>
        <mxCell id="0" />
        <mxCell id="1" parent="0" />
        <mxCell id="1415553544464" value="Table2" style="text;whiteSpace=wrap;rounded=0;dashed=0;inherit=default;fontSize=14;fontStyle=1;align=left;" parent="1" vertex="1">
          <mxGeometry x="40" y="40" width="200" height="30" as="geometry" />
        </mxCell>
        <mxCell id="1415542451776" value="&amp;nbsp;ID" style="swimlane;whiteSpace=wrap;rounded=1;dashed=0;childLayout=stackLayout;startSize=30;horizontalStack=0;horizontal=1;resizeParent=1;resizeParentMax=0;resizeLast=0;collapsible=0;marginButtom=0;align=left;strokeWidth=2;fontStyle=1;html=1;" parent="1415553544464" vertex="1">
          <mxGeometry y="30" width="200" height="60" as="geometry" />
        </mxCell>
        <mxCell id="1415542922256" value="Table1ID" style="text;whiteSpace=wrap;rounded=0;fillColor=none;strokeColor=none;dashed=0;verticalAlign=middle;spacingLeft=4;spacingRight=4;overflow=hidden;points=[[0,0.5],[1,0.5]];portConstraint=eastwest;rotatable=0;fontStyle=1;html=1;" parent="1415542451776" vertex="1">
          <mxGeometry y="30" width="200" height="30" as="geometry" />
        </mxCell>
        <mxCell id="1415554350736" value="Table1" style="text;whiteSpace=wrap;rounded=0;dashed=0;inherit=default;fontSize=14;fontStyle=1;align=left;" parent="1" vertex="1">
          <mxGeometry x="40" y="220" width="200" height="30" as="geometry" />
        </mxCell>
        <mxCell id="1415542163696" value="&amp;nbsp;ID" style="swimlane;whiteSpace=wrap;rounded=0;dashed=0;childLayout=stackLayout;startSize=30;horizontalStack=0;horizontal=1;resizeParent=1;resizeParentMax=0;resizeLast=0;collapsible=0;marginButtom=0;align=left;strokeWidth=2;fontStyle=1;html=1;" parent="1415554350736" vertex="1">
          <mxGeometry y="30" width="200" height="60" as="geometry" />
        </mxCell>
        <mxCell id="1415554886656" value="Table3" style="text;whiteSpace=wrap;rounded=0;dashed=0;inherit=default;fontSize=14;fontStyle=1;align=left;" parent="1" vertex="1">
          <mxGeometry x="360" y="40" width="200" height="30" as="geometry" />
        </mxCell>
        <mxCell id="1415554877392" value="&amp;nbsp;ID" style="swimlane;whiteSpace=wrap;rounded=1;dashed=0;childLayout=stackLayout;startSize=30;horizontalStack=0;horizontal=1;resizeParent=1;resizeParentMax=0;resizeLast=0;collapsible=0;marginButtom=0;align=left;strokeWidth=2;fontStyle=1;html=1;" parent="1415554886656" vertex="1">
          <mxGeometry y="30" width="200" height="60" as="geometry" />
        </mxCell>
        <mxCell id="1415513959184" value="Table2ID" style="text;whiteSpace=wrap;rounded=0;fillColor=none;strokeColor=none;dashed=0;verticalAlign=middle;spacingLeft=4;spacingRight=4;overflow=hidden;points=[[0,0.5],[1,0.5]];portConstraint=eastwest;rotatable=0;fontStyle=1;html=1;" parent="1415554877392" vertex="1">
          <mxGeometry y="30" width="200" height="30" as="geometry" />
        </mxCell>
        <mxCell id="1415554887232" value="включает" style="edgeStyle=orthogonalEdgeStyle;orthogonalLoop=1;dashed=1;rounded=0;jettySize=auto;entryX=0.01;entryY=0.067;startArrow=oval;endArrow=none;startFill=1;strokeWidth=2;startSize=10;fontStyle=1;entryDx=0;entryDy=0;entryPerimeter=0;exitX=0.996;exitY=0.078;exitDx=0;exitDy=0;exitPerimeter=0;" parent="1" source="1415542922256" target="1415513959184" edge="1">
          <mxGeometry y="20" relative="1" as="geometry">
            <mxPoint x="330" y="70" as="sourcePoint" />
          </mxGeometry>
        </mxCell>
        <mxCell id="1415555191088" value="Table4" style="text;whiteSpace=wrap;rounded=0;dashed=0;inherit=default;fontSize=14;fontStyle=1;align=left;" parent="1" vertex="1">
          <mxGeometry x="360" y="220" width="200" height="30" as="geometry" />
        </mxCell>
        <mxCell id="1415555191328" value="&amp;nbsp;ID" style="swimlane;whiteSpace=wrap;rounded=0;dashed=0;childLayout=stackLayout;startSize=30;horizontalStack=0;horizontal=1;resizeParent=1;resizeParentMax=0;resizeLast=0;collapsible=0;marginButtom=0;align=left;strokeWidth=2;fontStyle=1;html=1;" parent="1415555191088" vertex="1">
          <mxGeometry y="30" width="200" height="60" as="geometry" />
        </mxCell>
        <mxCell id="1415555191136" value="Table3ID" style="text;whiteSpace=wrap;rounded=0;fillColor=none;strokeColor=none;dashed=0;verticalAlign=middle;spacingLeft=4;spacingRight=4;overflow=hidden;points=[[0,0.5],[1,0.5]];portConstraint=eastwest;rotatable=0;fontStyle=1;html=1;" parent="1415555191328" vertex="1">
          <mxGeometry y="30" width="200" height="30" as="geometry" />
        </mxCell>
        <mxCell id="1415555191472" value="включает" style="edgeStyle=orthogonalEdgeStyle;orthogonalLoop=1;dashed=1;rounded=0;jettySize=auto;startArrow=oval;endArrow=none;startFill=1;strokeWidth=2;startSize=10;fontStyle=1;entryX=0.5;entryY=0;entryDx=0;entryDy=0;" parent="1" target="1415555191088" edge="1">
          <mxGeometry x="-0.1063" y="40" relative="1" as="geometry">
            <mxPoint x="460" y="130" as="sourcePoint" />
            <mxPoint x="490" y="160" as="targetPoint" />
            <mxPoint as="offset" />
          </mxGeometry>
        </mxCell>
        <mxCell id="1415501852656" value="включает" style="edgeStyle=orthogonalEdgeStyle;orthogonalLoop=1;dashed=1;rounded=0;jettySize=auto;entryX=0.5;entryY=0;startArrow=oval;endArrow=none;startFill=1;strokeWidth=2;startSize=10;fontStyle=1;entryDx=0;entryDy=0;" parent="1" target="1415554350736" edge="1">
          <mxGeometry x="0.0056" y="-29" relative="1" as="geometry">
            <mxPoint x="140" y="130" as="sourcePoint" />
            <mxPoint x="59" as="offset" />
          </mxGeometry>
        </mxCell>
      </root>
    </mxGraphModel>
  </diagram>
</mxfile>
